<?xml version="1.0" encoding="UTF-8"?>
<svg id="Layer_1" xmlns="http://www.w3.org/2000/svg" version="1.1" viewBox="0 0 1030.3 377.3">
  <!-- Generator: Adobe Illustrator 29.0.0, SVG Export Plug-In . SVG Version: 2.1.0 Build 186)  -->
  <defs>
    <style>
      .st0 {
        fill: #372751;
      }

      .st1 {
        fill: #e3b636;
      }

      .st2 {
        fill: #804680;
      }
    </style>
  </defs>
  <g>
    <path class="st2" d="M148,78.2c-13.7,4.7-25.7,11.9-36,21.6-10.3,9.8-18.6,22-24.7,36.7-6.1,14.7-9.2,32.1-9.2,52.2s3.1,37.5,9.2,52.2c6.1,14.7,14.3,27,24.7,36.9,10.3,9.9,22.3,17.2,36,21.8,13.7,4.7,28.2,7,43.7,7s32.5-2.3,46.9-7c14.4-4.7,29.8-12.1,46.1-22.3l28.8,66.4c-18.3,11.4-37.9,19.8-58.7,25.3-20.8,5.5-42.7,8.3-65.7,8.3s-54.9-4.7-78.2-14.2c-23.3-9.5-43.2-22.7-59.6-39.7-16.4-17-29.1-37-38-60.1C4.4,240.3,0,215.5,0,188.7s4.4-51.7,13.3-74.7c8.9-23,21.5-43,38-60,16.4-17,36.3-30.3,59.6-39.7C134.2,4.7,160.3,0,189.1,0s44.9,2.8,65.7,8.5c20.8,5.7,40.4,14.2,58.7,25.5l-28.8,65.9c-16-9.9-31.3-17.2-45.9-21.8-14.6-4.7-30.3-7-47.2-7s-30,2.3-43.7,7Z"/>
    <path class="st2" d="M349.1,11.8h72.5v365.5h-72.5V11.8Z"/>
    <g>
      <path class="st2" d="M475.8,83.2c-8.4-6.6-12.7-16.1-12.7-28.6s4-20.5,12-27.5c8-7,17.8-10.5,29.5-10.5s21.4,3.5,29.3,10.5c7.9,7,11.8,16.2,11.8,27.5s-3.9,21-11.6,28c-7.7,7-17.5,10.5-29.5,10.5s-20.4-3.3-28.8-9.8ZM540.9,120.1v257.2h-72.5V120.1h72.5ZM475.8,83.2c-8.4-6.6-12.7-16.1-12.7-28.6s4-20.5,12-27.5c8-7,17.8-10.5,29.5-10.5s21.4,3.5,29.3,10.5c7.9,7,11.8,16.2,11.8,27.5s-3.9,21-11.6,28c-7.7,7-17.5,10.5-29.5,10.5s-20.4-3.3-28.8-9.8Z"/>
      <path class="st1" d="M471.6,82.5c9.7,7.5,20.7,11.3,33,11.3s24.9-4,33.8-12c8.8-8,13.3-18.7,13.3-32s-4.5-23.5-13.5-31.5c-9-8-20.2-12-33.5-12s-24.6,4-33.8,12c-9.2,8-13.8,18.5-13.8,31.5s4.8,25.3,14.5,32.8Z"/>
    </g>
    <path class="st2" d="M597.5,188c6.8-16.5,16.4-30.8,28.8-43,12.4-12.2,26.9-21.8,43.7-28.6,16.7-6.8,35-10.3,54.8-10.3s33.3,1.8,47.4,5.5c14.1,3.6,29.2,9.5,45.2,17.7l-29.3,65.5c-11.4-6.4-21.6-10.9-30.8-13.5s-19.1-3.9-29.9-3.9-18.9,1.5-26.9,4.6c-8,3.1-14.8,7.4-20.3,13.1-5.5,5.7-9.8,12.4-12.9,20.3-3.1,7.9-4.6,16.7-4.6,26.6s1.5,18.8,4.6,26.6c3.1,7.9,7.4,14.6,12.9,20.1,5.5,5.5,12.3,9.8,20.3,12.9,8,3.1,17,4.6,26.9,4.6s20.7-1.2,29.9-3.7c9.2-2.5,19.4-7.2,30.8-14.2l29.3,66.4c-16,8.2-31.1,14-45.2,17.5-14.1,3.5-29.9,5.2-47.4,5.2s-38.1-3.4-54.8-10.3c-16.7-6.8-31.3-16.3-43.7-28.4-12.4-12.1-22-26.3-28.8-42.8-6.8-16.4-10.3-34.4-10.3-53.9s3.4-37.5,10.3-53.9Z"/>
    <g id="_x3C_Radial_Repeat_x3E_">
      <g>
        <path class="st1" d="M985.3,11.8c12.9,0,25.9,0,38.8.1,2.1,0,4.1,1.3,6.1,2.1-.9,2-1.4,4.4-2.9,5.8-40.5,40.7-80.5,81.8-121.8,121.6-27.8,26.9-27.8,79.3,0,106.2,40.8,39.3,80.3,80,120.3,120,1,1,2.3,1.9,3,3.1.7,1.3,1.7,3.1,1.2,4.2-.4,1.1-2.4,1.8-3.8,2.2-1.5.4-3.2.1-4.8.1-24.6,0-49.3,0-73.9,0-4,0-7.1-1-10-4-24.3-24.5-48.7-49-73.2-73.3-7.7-7.7-11.5-16.5-11.4-27.5.2-52,.2-104,0-156,0-10.9,3.7-19.8,11.4-27.5,24.5-24.3,48.9-48.8,73.2-73.3,2.9-2.9,6-4.1,10-4,12.6.2,25.2,0,37.8,0Z"/>
        <path class="st1" d="M969.7,194.3c0-26.8,0-53.6,0-80.4,0-3.4,0-7.3,4.1-7.5,2.3,0,5.6,2.2,6.9,4.3,16.2,26.3,32.1,52.9,48.2,79.3,1.9,3.1,2,5.8,0,9-16.2,26.6-32.2,53.2-48.3,79.8-1.7,2.8-3.9,5.7-7.1,3.8-1.9-1.1-3.6-4.4-3.6-6.8-.2-27.2-.2-54.3-.2-81.5Z"/>
      </g>
    </g>
  </g>
  <g>
    <path class="st0" d="M-553.4,114v-5h1.2c.2,0,.5,0,.7,0,.2,0,.4,0,.6.2.2,0,.3.2.4.4.1.2.2.4.2.7s-.1.7-.3.9-.5.4-.9.4l1.4,2.3h-.6l-1.4-2.2h-.9v2.2h-.5ZM-552.9,109.5v1.7h.6c.2,0,.3,0,.5,0,.2,0,.4,0,.5,0,.2,0,.3-.1.4-.2.1-.1.2-.3.2-.5s0-.3-.1-.4c0-.1-.2-.2-.3-.3-.1,0-.3-.1-.4-.1-.2,0-.3,0-.5,0h-.9Z"/>
    <path class="st0" d="M-551.7,116.4c-2.7,0-5-2.2-5-5s2.2-5,5-5,5,2.2,5,5-2.2,5-5,5ZM-551.7,107.6c-2.1,0-3.9,1.7-3.9,3.9s1.7,3.9,3.9,3.9,3.9-1.7,3.9-3.9-1.7-3.9-3.9-3.9Z"/>
  </g>
</svg>